<svg aria-hidden="true" style="position: absolute; width: 0; height: 0; overflow: hidden;" version="1.1" xmlns="http://www.w3.org/2000/svg" xmlns:xlink="http://www.w3.org/1999/xlink">
<defs>
<symbol id="icon-menu-svgrepo-com" viewBox="0 0 32 32">
<path d="M22.704 0h-13.408c-5.824 0-9.296 3.472-9.296 9.296v13.392c0 5.84 3.472 9.312 9.296 9.312h13.392c5.824 0 9.296-3.472 9.296-9.296v-13.408c0.016-5.824-3.456-9.296-9.28-9.296zM24 24.4h-16c-0.656 0-1.2-0.544-1.2-1.2s0.544-1.2 1.2-1.2h16c0.656 0 1.2 0.544 1.2 1.2s-0.544 1.2-1.2 1.2zM24 17.2h-16c-0.656 0-1.2-0.544-1.2-1.2s0.544-1.2 1.2-1.2h16c0.656 0 1.2 0.544 1.2 1.2s-0.544 1.2-1.2 1.2zM24 10h-16c-0.656 0-1.2-0.544-1.2-1.2s0.544-1.2 1.2-1.2h16c0.656 0 1.2 0.544 1.2 1.2s-0.544 1.2-1.2 1.2z"></path>
</symbol>
<symbol id="icon-mobile-menu" viewBox="0 0 32 32">
<path d="M3.2 6.4h25.6c1.767 0 3.2-1.433 3.2-3.2s-1.433-3.2-3.2-3.2h-25.6c-1.767 0-3.2 1.433-3.2 3.2s1.433 3.2 3.2 3.2z"></path>
<path d="M28.8 12.8h-25.6c-1.767 0-3.2 1.433-3.2 3.2s1.433 3.2 3.2 3.2h25.6c1.767 0 3.2-1.433 3.2-3.2s-1.433-3.2-3.2-3.2z"></path>
<path d="M28.8 25.6h-25.6c-1.767 0-3.2 1.433-3.2 3.2s1.433 3.2 3.2 3.2h25.6c1.767 0 3.2-1.433 3.2-3.2s-1.433-3.2-3.2-3.2z"></path>
</symbol>
<symbol id="hero-group1" viewBox="0 0 212 32">
<path fill="#fff" style="fill: var(--color1, #fff)" d="M22.801 19.226c1.822 4.936 7.312 7.462 12.249 5.644 4.934-1.83 7.466-7.315 5.638-12.252-1.823-4.943-7.305-7.465-12.249-5.643-4.94 1.829-7.462 7.311-5.637 12.251z"></path>
<path fill="#fff" style="fill: var(--color1, #fff)" d="M10.608 25.422c5.266 0 9.535-4.269 9.535-9.535s-4.269-9.535-9.535-9.535c-5.266 0-9.535 4.269-9.535 9.535s4.269 9.535 9.535 9.535z"></path>
<path fill="#191825" style="fill: var(--color2, #191825)" opacity="0.5" d="M12.234 15.784c0 0.972-0.789 1.768-1.761 1.768-0.976 0-1.764-0.795-1.764-1.768 0-0.97 0.788-1.757 1.764-1.757 0.972 0.002 1.761 0.787 1.761 1.757z"></path>
<path fill="#191825" style="fill: var(--color2, #191825)" opacity="0.5" d="M33.483 15.784c0 0.972-0.786 1.768-1.758 1.768-0.979 0-1.764-0.795-1.764-1.768 0-0.97 0.785-1.757 1.764-1.757 0.973 0.002 1.758 0.787 1.758 1.757z"></path>
<path fill="#191825" style="fill: var(--color2, #191825)" opacity="0.5" d="M5.234 15.787c0 2.891 2.351 5.238 5.242 5.238 2.884 0 5.233-2.347 5.233-5.238 0-2.884-2.351-5.232-5.233-5.232-2.889 0.003-5.242 2.35-5.242 5.232zM7.040 15.787c0-1.891 1.545-3.429 3.439-3.429 1.891 0 3.427 1.542 3.427 3.429 0 1.897-1.536 3.437-3.427 3.437-1.894 0.001-3.439-1.538-3.439-3.437z"></path>
<path fill="#191825" style="fill: var(--color2, #191825)" opacity="0.5" d="M26.485 15.787c0 2.891 2.349 5.238 5.238 5.238 2.885 0 5.232-2.347 5.232-5.238 0-2.884-2.347-5.232-5.232-5.232-2.888 0.003-5.238 2.35-5.238 5.232zM28.291 15.787c0-1.891 1.541-3.429 3.436-3.429 1.891 0 3.426 1.542 3.426 3.429 0 1.897-1.535 3.437-3.426 3.437-1.898 0.001-3.436-1.538-3.436-3.437z"></path>
<path fill="#fff" style="fill: var(--color1, #fff)" d="M28.072 5.974c1.104-0.407 2.234-0.604 3.35-0.635-3.039-1.36-6.479-2.049-10.291-2.049-3.782 0-7.273 0.705-10.31 2.004 5.498 0.109 9.967 4.414 10.353 9.841 0.093-1.245 0.398-2.477 0.936-3.643 1.185-2.58 3.305-4.537 5.962-5.517z"></path>
<path fill="#191825" style="fill: var(--color2, #191825)" opacity="0.5" d="M40.27 9.623c0.497-2.128 2.075-4.258 2.075-4.258l-7.079-0.004c-3.97-2.563-8.791-3.923-14.132-3.923-5.544 0-10.55 1.392-14.497 3.974l-6.636 0.006c0 0 1.559 2.106 2.063 4.218-1.291 1.755-2.058 3.912-2.058 6.253 0 5.845 4.758 10.6 10.605 10.6 3.343 0 6.324-1.558 8.268-3.978l2.258 3.381 2.275-3.41c1.024 1.302 2.344 2.358 3.892 3.074 2.574 1.183 5.46 1.301 8.116 0.319 5.486-2.029 8.304-8.145 6.274-13.625-0.356-0.965-0.842-1.841-1.425-2.627zM21.132 3.289c3.811 0 7.252 0.689 10.291 2.050-1.117 0.030-2.245 0.229-3.35 0.633-2.658 0.98-4.777 2.937-5.959 5.513-0.538 1.166-0.842 2.398-0.936 3.643-0.388-5.424-4.858-9.73-10.356-9.841 3.036-1.295 6.526-1.998 10.31-1.998zM17.618 20.625c-1.522 2.245-4.098 3.725-7.010 3.725-4.669 0-8.467-3.802-8.467-8.46 0-4.671 3.8-8.466 8.467-8.466s8.466 3.795 8.466 8.466c0 0.285-0.055 0.553-0.085 0.829-0.141 1.43-0.602 2.771-1.371 3.906zM34.679 23.867c-2.121 0.779-4.422 0.693-6.476-0.254-1.457-0.675-2.651-1.733-3.511-3.046-0.35-0.531-0.658-1.094-0.886-1.712-0.258-0.698-0.387-1.416-0.456-2.141-0.141-1.469 0.072-2.954 0.705-4.331 0.949-2.055 2.638-3.618 4.759-4.403 4.381-1.616 9.257 0.631 10.875 5.010 1.617 4.379-0.631 9.256-5.010 10.877z"></path>
<path fill="#191825" style="fill: var(--color2, #191825)" opacity="0.5" d="M54.852 2.987l-3.104 1.072c0 0 0 3.717 0 4.050-0.325 0-3.44 0-3.44 0v2.716c0 0 3.019 0 3.347 0 0 0.353 0 8.719 0 8.719 0 4.143 1.411 5.844 4.88 5.844 0.88 0 1.72-0.109 2.563-0.339l0.137-0.034-0.038-2.816-0.237 0.090c-0.682 0.236-1.216 0.352-1.628 0.352-1.63 0-2.234-0.917-2.234-3.391 0 0 0-8.073 0-8.421 0.33 0 3.97 0 3.97 0v-2.72c0 0-3.638 0-3.97 0 0-0.336 0-5.202 0-5.202l-0.246 0.080z"></path>
<path fill="#191825" style="fill: var(--color2, #191825)" opacity="0.5" d="M65.585 10.859c0-0.956 0-2.751 0-2.751h-3.149v16.979h3.443v-8.523c0-3.573 1.501-5.541 4.221-5.541 0.394 0 0.777 0.059 1.243 0.191l0.223 0.064 0.113-3.351-1.481-0.113c-1.995-0.001-3.607 1.076-4.612 3.046z"></path>
<path fill="#191825" style="fill: var(--color2, #191825)" opacity="0.5" d="M77.814 8.106h-3.259v16.98h3.443v-16.98h-0.183zM74.222 3.131c0 1.13 0.921 2.046 2.048 2.046 1.13 0 2.048-0.917 2.048-2.046 0-1.128-0.918-2.049-2.048-2.049-1.127-0.003-2.048 0.921-2.048 2.049z"></path>
<path fill="#191825" style="fill: var(--color2, #191825)" opacity="0.5" d="M90.157 7.707c-2.362 0-4.35 1.118-5.674 3.153 0-0.813 0-2.758 0-2.758h-3.148v23.895h3.446c0 0 0-8.345 0-9.262 1.243 1.69 3.025 2.619 5.243 2.619 4.352 0 7.164-3.571 7.164-9.086 0-5.121-2.827-8.562-7.031-8.562zM89.195 22.57c-2.724 0-4.416-2.329-4.416-6.070 0-3.611 1.785-5.944 4.547-5.944 2.662 0 4.254 2.212 4.254 5.909 0.001 3.763-1.68 6.105-4.385 6.105z"></path>
<path fill="#191825" style="fill: var(--color2, #191825)" opacity="0.5" d="M107.251 7.711c-2.106 0-3.95 0.398-5.642 1.212l-0.104 0.051 0.036 2.939 0.272-0.152c1.617-0.904 3.147-1.366 4.541-1.366 2.494 0 3.926 1.429 3.926 3.927 0 0 0 0.072 0 0.145-0.304 0-1.97 0-1.97 0-5.668 0-8.787 2.053-8.787 5.776 0 2.99 2.251 5.080 5.474 5.080 2.371 0 4.206-0.932 5.513-2.686 0 0.682 0 2.451 0 2.451h3.111v-10.275c-0.001-4.71-2.143-7.102-6.37-7.102zM110.274 17.921c0 2.925-1.759 4.817-4.482 4.817-1.668 0-2.831-1.096-2.831-2.663 0-2.060 1.97-3.192 5.545-3.192 0 0 1.473 0 1.771 0-0.003 0.264-0.003 1.038-0.003 1.038z"></path>
<path fill="#191825" style="fill: var(--color2, #191825)" opacity="0.5" d="M128.243 0c0 0 0 9.466 0 10.412-1.27-1.765-3.037-2.7-5.306-2.7-4.212 0-7.042 3.468-7.042 8.623 0 5.31 2.87 9.018 6.973 9.018 2.43 0 4.325-1.076 5.639-3.168 0 0.846 0 2.904 0 2.904h3.183v-25.089h-3.447zM123.76 22.503c-2.623 0-4.253-2.288-4.253-5.971 0-3.687 1.644-6.071 4.191-6.071 2.844 0 4.542 2.268 4.542 6.071 0.003 3.634-1.751 5.971-4.48 5.971z"></path>
<path fill="#191825" style="fill: var(--color2, #191825)" opacity="0.5" d="M147.075 8.105l-4.882 9.805-4.514-9.805h-3.879l8.321 16.98 8.546-16.98h-3.592z"></path>
<path fill="#191825" style="fill: var(--color2, #191825)" opacity="0.5" d="M155.679 8.106h-3.26v16.98h3.447v-16.98h-0.187zM152.089 3.131c0 1.13 0.92 2.046 2.048 2.046 1.134 0 2.048-0.917 2.048-2.046 0-1.128-0.917-2.049-2.048-2.049-1.127-0.003-2.048 0.921-2.048 2.049z"></path>
<path fill="#191825" style="fill: var(--color2, #191825)" opacity="0.5" d="M159.902 12.461c0 2.388 1.641 3.646 4.672 5.129 1.91 0.939 2.909 1.493 2.909 2.816 0 1.357-1.226 2.234-3.13 2.234-1.345 0-2.839-0.378-4.319-1.106l-0.252-0.124-0.111 2.994 0.114 0.042c1.415 0.563 2.902 0.839 4.439 0.839 4.211 0 6.929-2.007 6.929-5.112 0-2.588-1.721-3.903-4.705-5.296-2.185-1.027-3.101-1.624-3.101-2.713 0-1.031 1.019-1.703 2.595-1.703 1.424 0 2.813 0.316 4.128 0.943l0.248 0.114 0.15-2.929-0.137-0.040c-1.426-0.424-2.834-0.637-4.19-0.637-3.731-0.006-6.239 1.825-6.239 4.547z"></path>
<path fill="#191825" style="fill: var(--color2, #191825)" opacity="0.5" d="M181.896 7.711c-5.174 0-8.387 3.408-8.387 8.887 0 5.482 3.216 8.884 8.387 8.884 5.199 0 8.425-3.403 8.425-8.884 0-5.478-3.229-8.887-8.425-8.887zM181.926 22.673c-2.86 0-4.78-2.454-4.78-6.108 0-3.673 1.92-6.136 4.78-6.136 2.906 0 4.783 2.411 4.783 6.136 0 3.711-1.874 6.108-4.783 6.108z"></path>
<path fill="#191825" style="fill: var(--color2, #191825)" opacity="0.5" d="M196.673 10.859c0-0.956 0-2.751 0-2.751h-3.149v16.979h3.443v-8.523c0-3.573 1.492-5.541 4.216-5.541 0.392 0 0.772 0.059 1.229 0.191l0.233 0.064 0.107-3.351-1.475-0.113c-1.987-0.001-3.596 1.076-4.604 3.046z"></path>
<path fill="#191825" style="fill: var(--color2, #191825)" opacity="0.5" d="M210.965 7.356c0.565 0.572 0.862 1.332 0.862 2.149 0 0.854-0.319 1.62-0.907 2.183-0.613 0.582-1.372 0.894-2.166 0.894-0.829 0-1.592-0.326-2.185-0.939-0.566-0.588-0.887-1.339-0.887-2.141 0-0.818 0.327-1.61 0.937-2.211 0.572-0.561 1.307-0.866 2.135-0.866 0.849 0.001 1.621 0.323 2.211 0.931zM207 7.694c-0.497 0.497-0.763 1.137-0.763 1.812 0 0.658 0.246 1.264 0.721 1.747 0.475 0.497 1.107 0.765 1.783 0.765 0.658 0 1.291-0.253 1.779-0.727 0.481-0.462 0.745-1.094 0.745-1.786 0-0.676-0.246-1.291-0.712-1.761-0.489-0.497-1.109-0.758-1.799-0.758-0.681 0-1.278 0.243-1.754 0.709zM208.81 7.752c0.963 0 1.458 0.349 1.458 0.98 0 0.435-0.259 0.772-0.718 0.911l0.757 1.481h-1.025l-0.631-1.337h-0.267v1.337h-0.929v-3.374l1.355 0.001zM208.377 9.237h0.323c0.414 0 0.613-0.145 0.613-0.435 0-0.33-0.209-0.466-0.662-0.466h-0.274v0.901z"></path>
</symbol>
<symbol id="hero-group2" viewBox="0 0 114 32">
<path fill="#191825" style="fill: var(--color2, #191825)" opacity="0.5" d="M54.771 25.038h-3.515c-0.022 0-0.022 0-0.033-0.011l-3.026-3.693-3.026 3.693c-0.011 0.011-0.022 0.011-0.033 0.011h-2.814c-0.022 0-0.033-0.011-0.044-0.022 0-0.011 0-0.033 0.011-0.044l4.46-5.473-4.405-5.417c-0.011-0.022-0.011-0.033-0.011-0.056 0.011-0.011 0.022-0.022 0.033-0.022h3.515c0.011 0 0.022 0.011 0.033 0.022l2.659 3.292 2.703-3.293c0.011-0.011 0.022-0.022 0.033-0.022h2.859c0.011 0 0.033 0.011 0.044 0.022 0.011 0.022 0 0.033-0.011 0.056l-4.171 5.017 4.783 5.873c0.011 0.011 0.011 0.033 0.011 0.044-0.022 0.022-0.033 0.022-0.056 0.022z"></path>
<path fill="#191825" style="fill: var(--color2, #191825)" opacity="0.5" d="M73.781 15.938c-1.557 0-2.614 0.945-2.925 2.581h5.295v-0.111c0-1.302-0.968-2.469-2.369-2.469zM78.875 20.21c-0.011 0.011-0.022 0.022-0.033 0.022h-8.042c0.167 1.869 1.379 2.937 3.348 2.937 1.212 0 2.503-0.412 4.316-1.379 0.033-0.022 0.067 0.011 0.067 0.044v2.469c0 0.022-0.011 0.033-0.022 0.033-1.691 0.712-3.393 1.201-4.727 1.201-3.459 0-5.973-2.525-5.973-5.995s2.514-5.995 5.973-5.995c3.159 0 5.183 2.124 5.183 5.050 0 0.478-0.078 1.579-0.089 1.613z"></path>
<path fill="#191825" style="fill: var(--color2, #191825)" opacity="0.5" d="M95.204 11.711c-0.99 0-1.791-0.79-1.791-1.757 0-1.001 0.801-1.813 1.791-1.813s1.791 0.812 1.791 1.813c0 0.968-0.801 1.757-1.791 1.757zM93.758 25.037c-0.033 0-0.044-0.011-0.044-0.044v-10.957c0-0.022 0.011-0.044 0.033-0.044h2.903c0.022 0 0.033 0.022 0.033 0.044v10.957c0 0.033-0.022 0.044-0.044 0.044h-2.881z"></path>
<path fill="#191825" style="fill: var(--color2, #191825)" opacity="0.5" d="M60.087 23.391c-0.523 0-1.057-0.078-1.68-0.234l0.011-7.030c0.723-0.234 1.346-0.334 1.969-0.334 2.013 0 3.359 1.479 3.359 3.693 0 2.369-1.435 3.904-3.66 3.904zM60.877 13.547c-0.823 0-1.646 0.145-2.514 0.445h-2.892c-0.022 0-0.044 0.022-0.044 0.044v17.964c0.868-0.122 1.935-0.434 2.981-1.168v-5.462c0.712 0.1 1.301 0.167 1.869 0.167 3.96 0 6.518-2.369 6.518-6.040 0-3.504-2.436-5.951-5.918-5.951z"></path>
<path fill="#191825" style="fill: var(--color2, #191825)" opacity="0.5" d="M88.474 22.477c-0.901 0.478-1.713 0.701-2.469 0.701-1.791 0-2.87-1.268-2.87-3.393 0-2.447 1.368-4.038 3.493-4.038 0.59 0 1.157 0.145 1.847 0.456v6.274zM88.474 8.195v5.729c-0.845-0.245-1.591-0.356-2.347-0.356-3.448 0-6.040 2.592-6.040 6.040 0 3.426 2.291 5.918 5.45 5.918 1.090 0 2.114-0.278 3.315-0.89v0.99c0.79-0.156 1.702-0.467 2.603-1.112v-17.497c-0.879 0.122-1.924 0.423-2.981 1.179z"></path>
<path fill="#191825" style="fill: var(--color2, #191825)" opacity="0.5" d="M106.75 22.458c-0.879 0.5-1.624 0.745-2.291 0.745-1.925 0-3.070-1.268-3.070-3.393 0-2.414 1.357-4.038 3.37-4.038 0.534 0 1.19 0.211 1.991 0.634v6.051zM109.731 13.86c0-0.067-0.056-0.122-0.122-0.122h-2.347c-0.067 0-0.134 0.056-0.134 0.122v0.4h-0.055c-1.079-0.478-2.014-0.69-2.915-0.69-3.248 0-5.795 2.692-5.795 6.14 0 3.482 2.28 5.817 5.673 5.817 0.901 0 2.069-0.067 3.159-1.313v1.413c0.767-0.167 1.68-0.489 2.536-1.112v-10.656z"></path>
<path fill="#191825" style="fill: var(--color2, #191825)" opacity="0.5" d="M34.292 22.3h7.286c-0.111 0.812-0.389 1.769-1.012 2.736h-7.575c-0.923 0-1.691-0.723-1.78-1.624 0-0.011-0.011-0.022-0.011-0.044v-14.371c0-0.011 0.011-0.022 0.011-0.033 0.089-0.912 0.856-1.635 1.78-1.635h8.576c-0.111 0.812-0.389 1.791-1.023 2.759h-6.251v3.915h6.196c0.022 0 0.044 0.022 0.044 0.044v2.714c0 0.022-0.022 0.044-0.044 0.044h-6.196v5.495z"></path>
<path fill="#191825" style="fill: var(--color2, #191825)" opacity="0.5" d="M25.172 25.268c-0.723 0-1.168-0.567-1.168-1.257 0-0.734 0.512-1.257 1.168-1.257 0.645 0 1.157 0.512 1.157 1.257s-0.512 1.257-1.157 1.257zM25.172 22.621c-0.734 0-1.368 0.556-1.368 1.39 0 0.79 0.567 1.39 1.368 1.39 0.723 0 1.357-0.556 1.357-1.39s-0.623-1.39-1.357-1.39z"></path>
<path fill="#191825" style="fill: var(--color2, #191825)" opacity="0.5" d="M24.849 23.903v-0.512h0.345c0.178 0 0.378 0.022 0.378 0.234 0 0.256-0.189 0.267-0.4 0.267-0.011 0.011-0.323 0.011-0.323 0.011zM25.816 23.658c0-0.334-0.2-0.478-0.601-0.478h-0.623v1.646h0.267v-0.701h0.256l0.423 0.701h0.311l-0.456-0.723c0.245-0.022 0.423-0.145 0.423-0.445z"></path>
<path fill="#191825" style="fill: var(--color2, #191825)" opacity="0.5" d="M112.134 15.816c-0.723 0-1.168-0.567-1.168-1.257 0-0.734 0.511-1.257 1.168-1.257 0.645 0 1.156 0.512 1.156 1.257s-0.511 1.257-1.156 1.257zM112.134 13.18c-0.735 0-1.369 0.556-1.369 1.39 0 0.79 0.568 1.39 1.369 1.39 0.723 0 1.357-0.556 1.357-1.39 0-0.845-0.634-1.39-1.357-1.39z"></path>
<path fill="#191825" style="fill: var(--color2, #191825)" opacity="0.5" d="M111.8 14.446v-0.501h0.345c0.178 0 0.378 0.022 0.378 0.234 0 0.256-0.189 0.267-0.4 0.267h-0.323zM112.779 14.213c0-0.334-0.2-0.478-0.601-0.478h-0.623v1.646h0.267v-0.701h0.256l0.423 0.701h0.311l-0.456-0.723c0.234-0.022 0.423-0.145 0.423-0.445z"></path>
<path fill="#191825" style="fill: var(--color2, #191825)" opacity="0.5" d="M15.772 10.076l-0.523-1.491-4.494-5.995 0.801-0.2 7.731 6.685 4.55-1.301c0.534-0.133 1.146-0.167 1.602-0.167-1.424-3.081-4.049-5.617-7.497-6.841-6.819-2.436-14.327 1.135-16.752 7.964-0.756 2.113-0.923 4.294-0.612 6.363l10.89-3.782 4.305-1.235z"></path>
<path fill="#191825" style="fill: var(--color2, #191825)" opacity="0.5" d="M25.928 8.785c-0.4 0.256-0.99 0.601-1.568 0.79l-4.561 1.301-3.037 9.766-0.79 0.256 0.645-7.453-0.356-1.546-4.271 1.224-11.301 2.636c0.901 4.338 3.971 8.131 8.454 9.722 6.83 2.436 14.327-1.135 16.763-7.964 1.046-2.925 0.979-5.995 0.022-8.732z"></path>
<path fill="#fff" style="fill: var(--color1, #fff)" d="M16.25 11.889l0.356 1.546-0.645 7.453 0.79-0.256 3.037-9.766 4.561-1.301c0.578-0.189 1.168-0.523 1.568-0.79-0.145-0.4-0.3-0.79-0.478-1.179-0.467 0-1.068 0.022-1.602 0.167l-4.549 1.301-7.731-6.685-0.801 0.2 4.483 5.995 0.523 1.491-4.305 1.235-10.89 3.782c0.033 0.222 0.078 0.456 0.122 0.678l11.29-2.659 4.271-1.212z"></path>
</symbol>
<symbol id="hero-group3" viewBox="0 0 174 32">
<path d="M100.241 31.14l13.304-30.108c0.211-0.457-0.036-0.85-0.548-0.85h-9.32c-0.273 0.016-0.537 0.103-0.765 0.254s-0.412 0.36-0.533 0.605l-13.14 30.099c-0.192 0.466 0.055 0.85 0.557 0.85h9.147c0.512 0 1.096-0.384 1.297-0.85zM147.949 23.035l20.651-22.844h-24.151l-5.464 8.8h9.475l-20.989 23.009h25.558l9.521-8.964h-14.601zM59.57 0.182h-15.991c-0.474 0.027-0.932 0.18-1.329 0.441s-0.717 0.623-0.928 1.048l-12.582 28.838c-0.366 0.822 0.082 1.489 0.978 1.489h7.922c0.895 0 1.919-0.667 2.266-1.48l3.591-8.178h3.719c1.16-0.073 1.654 0.356 1.014 1.7l-2.76 6.469c-0.347 0.822 0.091 1.489 0.987 1.489h7.922c0.476-0.025 0.937-0.176 1.335-0.438s0.72-0.625 0.931-1.052l3.6-8.324c1.133-2.705-0.502-4.797-2.878-4.907 2.102-0.758 4.039-2.851 4.907-4.752l1.864-4.386c2.248-5.099 0.649-8.023-4.569-7.95zM54.91 9.283l-1.974 4.34c-0.457 1.042-1.115 1.124-1.773 1.097h-4.45l2.979-6.762h4.267c1.042 0.064 1.307 0.439 0.95 1.325zM90.692 0.173h-16.941c-0.339 0.018-0.668 0.125-0.952 0.311s-0.514 0.445-0.665 0.749l-12.966 29.697c-0.247 0.585 0.055 1.051 0.694 1.051h18.138c5.748-0.082 9.046-1.352 11.669-7.438l1.864-4.057c1.462-3.472 0.027-4.98-2.714-5.419 2.284-0.704 4.002-2.851 4.742-4.742l1.517-3.216c1.864-4.295 0.311-6.99-4.395-6.935zM82.377 20.093l-1.151 2.312c-0.576 1.608-1.581 2.047-2.997 2.065h-5.3l2.54-5.985h5.3c1.498 0.11 2.083 0.475 1.608 1.608zM85.42 9.438l-0.795 1.827-0.119 0.238c-0.132 0.381-0.386 0.708-0.724 0.93s-0.738 0.325-1.141 0.295h-4.596l2.102-4.843h4.688c0.841 0.055 0.978 0.603 0.585 1.553zM116.479 0.182l-3.939 8.809h5.62c0.384 0 0.566 0.274 0.411 0.63l-9.823 21.748c-0.164 0.347 0.028 0.631 0.411 0.631h10.006c0.384 0 0.822-0.283 0.978-0.64l9.43-21.738c0.090-0.183 0.227-0.338 0.398-0.451 0.17-0.112 0.367-0.178 0.57-0.189h5.766l5.428-8.8h-25.256zM33.464 11.019l1.243-2.714c2.504-5.72 0.85-8.178-4.066-8.114h-11.833c-4.87-0.064-8.927 2.677-11.175 7.776l-3.655 10.326h-3.454l6.606 8.918 10.919-8.918h-2.778l3.207-7.447c0.521-1.224 1.416-1.809 2.376-1.855h1.864c0.439 0.018 0.74 0.155 0.914 0.347l5.793-4.87 4.039 6.552z"></path>
<path d="M6.882 29.833l-4.861-6.159-0.256 0.548c-2.257 5.135-1.882 7.694 2.988 7.767h11.678c4.834-0.073 9.064-2.632 11.331-7.767l3.472-7.959h3.107l-5.3-8.927-10.828 8.927h2.97l-2.193 5.071c-0.53 1.078-1.334 1.663-2.193 1.7h-1.553l-8.361 6.798z"></path>
<path d="M172.446 0c0.43 0 0.795 0.155 1.097 0.457s0.457 0.667 0.457 1.097c0 0.42-0.155 0.786-0.457 1.097s-0.667 0.457-1.097 0.457c-0.204 0.003-0.407-0.036-0.595-0.114-0.189-0.079-0.359-0.195-0.501-0.342-0.302-0.311-0.457-0.676-0.457-1.097s0.155-0.804 0.457-1.097c0.142-0.147 0.312-0.263 0.501-0.342s0.391-0.118 0.595-0.115zM172.446 2.814c0.168 0.004 0.335-0.027 0.49-0.090 0.156-0.063 0.297-0.157 0.415-0.276 0.12-0.118 0.214-0.259 0.277-0.414s0.093-0.323 0.089-0.49c0.003-0.166-0.028-0.331-0.091-0.485s-0.156-0.293-0.275-0.41c-0.118-0.12-0.259-0.214-0.414-0.277-0.156-0.063-0.323-0.093-0.491-0.089-0.166-0.004-0.331 0.027-0.485 0.090s-0.294 0.157-0.41 0.276c-0.247 0.247-0.366 0.548-0.366 0.895s0.119 0.658 0.366 0.905c0.247 0.247 0.548 0.365 0.895 0.365zM173.241 2.376h-0.365l-0.457-0.658h-0.192v0.658h-0.329v-1.672h0.521c0.183 0 0.329 0.046 0.439 0.128 0.109 0.091 0.173 0.21 0.173 0.365 0 0.201-0.109 0.356-0.32 0.439l0.53 0.74zM172.236 1.444h0.174c0.21 0 0.311-0.082 0.311-0.238s-0.092-0.228-0.302-0.228h-0.183v0.466z"></path>
</symbol>
<symbol id="hero-group4" viewBox="0 0 103 32">
<path d="M54.337 8.040c0 1.153-0.929 2.082-2.083 2.082s-2.082-0.929-2.082-2.082 0.897-2.082 2.082-2.082c1.186 0.032 2.083 0.961 2.083 2.082zM45.752 12.237v0.513c0 0-0.993-1.282-3.107-1.282-3.491 0-6.214 2.659-6.214 6.342 0 3.652 2.691 6.342 6.214 6.342 2.146 0 3.107-1.313 3.107-1.313v0.544c0 0.256 0.193 0.448 0.449 0.448h2.594v-12.044h-2.594c-0.256 0.001-0.449 0.226-0.449 0.45zM45.752 19.956c-0.48 0.705-1.441 1.314-2.594 1.314-2.050 0-3.62-1.281-3.62-3.46s1.57-3.46 3.62-3.46c1.121 0 2.146 0.641 2.594 1.313v4.292zM50.718 11.788h3.075v12.044h-3.075v-12.044zM96.651 11.467c-2.114 0-3.108 1.282-3.108 1.282v-6.759h-3.075v17.842h2.595c0.256 0 0.448-0.224 0.448-0.449v-0.544c0 0 0.993 1.313 3.107 1.313 3.492 0 6.215-2.69 6.215-6.342s-2.723-6.343-6.182-6.343zM96.138 21.237c-1.186 0-2.114-0.608-2.595-1.313v-4.292c0.481-0.641 1.506-1.313 2.595-1.313 2.050 0 3.619 1.281 3.619 3.46s-1.569 3.459-3.619 3.459zM88.868 16.689v7.175h-3.076v-6.823c0-1.986-0.641-2.787-2.369-2.787-0.929 0-1.89 0.481-2.499 1.186v8.393h-3.074v-12.044h2.434c0.256 0 0.449 0.224 0.449 0.449v0.513c0.897-0.929 2.082-1.282 3.267-1.282 1.346 0 2.467 0.385 3.364 1.154 1.089 0.897 1.506 2.050 1.506 4.068zM70.385 11.467c-2.114 0-3.107 1.282-3.107 1.282v-6.759h-3.075v17.842h2.594c0.256 0 0.449-0.224 0.449-0.449v-0.544c0 0 0.993 1.313 3.107 1.313 3.492 0 6.214-2.69 6.214-6.342 0.032-3.652-2.691-6.343-6.182-6.343zM69.872 21.237c-1.185 0-2.114-0.608-2.594-1.313v-4.292c0.481-0.641 1.506-1.313 2.594-1.313 2.050 0 3.62 1.281 3.62 3.46s-1.569 3.459-3.62 3.459zM61.544 11.467c0.929 0 1.409 0.161 1.409 0.161v2.851c0 0-2.563-0.865-4.164 0.961v8.424h-3.075v-12.076h2.595c0.256 0 0.448 0.224 0.448 0.449v0.513c0.577-0.673 1.827-1.282 2.787-1.282zM29.609 22.743c-0.16-0.384-0.32-0.801-0.48-1.153-0.257-0.576-0.513-1.121-0.737-1.634l-0.032-0.032c-2.21-4.805-4.58-9.673-7.079-14.478l-0.096-0.193c-0.263-0.498-0.519-1-0.768-1.506-0.321-0.577-0.641-1.185-1.153-1.762-1.025-1.281-2.498-1.986-4.068-1.986-1.602 0-3.043 0.705-4.1 1.922-0.481 0.576-0.833 1.185-1.153 1.762-0.25 0.505-0.506 1.007-0.768 1.506l-0.096 0.193c-2.466 4.804-4.869 9.673-7.079 14.478l-0.032 0.064c-0.224 0.513-0.481 1.058-0.737 1.634-0.16 0.353-0.32 0.737-0.48 1.153-0.417 1.185-0.545 2.306-0.384 3.46 0.352 2.403 1.954 4.42 4.164 5.317 0.833 0.353 1.698 0.513 2.595 0.513 0.256 0 0.576-0.032 0.833-0.064 1.057-0.128 2.146-0.48 3.203-1.089 1.313-0.737 2.563-1.794 3.972-3.331 1.409 1.538 2.691 2.594 3.972 3.331 1.058 0.609 2.146 0.961 3.203 1.089 0.256 0.033 0.577 0.064 0.833 0.064 0.897 0 1.794-0.16 2.594-0.513 2.242-0.898 3.812-2.947 4.164-5.317 0.254-1.121 0.126-2.241-0.29-3.427zM15.163 24.409c-1.73-2.178-2.851-4.228-3.235-5.957-0.16-0.737-0.192-1.378-0.096-1.954 0.064-0.513 0.256-0.961 0.513-1.346 0.609-0.864 1.633-1.409 2.819-1.409s2.243 0.513 2.819 1.409c0.256 0.384 0.448 0.833 0.513 1.346 0.096 0.577 0.064 1.249-0.096 1.954-0.386 1.697-1.507 3.747-3.236 5.957zM27.943 25.914c-0.224 1.666-1.345 3.108-2.915 3.748-0.769 0.32-1.602 0.416-2.434 0.32-0.801-0.096-1.602-0.353-2.434-0.833-1.153-0.641-2.306-1.634-3.652-3.107 2.114-2.594 3.395-4.965 3.876-7.078 0.224-0.993 0.257-1.89 0.16-2.723-0.128-0.801-0.416-1.538-0.865-2.178-0.994-1.442-2.659-2.274-4.517-2.274s-3.523 0.865-4.516 2.274c-0.448 0.641-0.737 1.378-0.865 2.178-0.128 0.833-0.096 1.762 0.16 2.723 0.48 2.114 1.794 4.516 3.875 7.111-1.313 1.474-2.498 2.467-3.652 3.108-0.833 0.481-1.633 0.737-2.434 0.833-0.865 0.096-1.698-0.032-2.434-0.32-1.569-0.641-2.691-2.082-2.914-3.748-0.096-0.801-0.032-1.601 0.288-2.498 0.096-0.321 0.256-0.641 0.416-1.025 0.224-0.513 0.48-1.058 0.737-1.602l0.032-0.064c2.21-4.773 4.58-9.642 7.047-14.382l0.096-0.193c0.257-0.48 0.513-0.993 0.769-1.473 0.256-0.513 0.544-0.993 0.897-1.41 0.673-0.768 1.569-1.185 2.563-1.185s1.89 0.417 2.563 1.185c0.353 0.418 0.641 0.898 0.897 1.41 0.257 0.481 0.513 0.993 0.769 1.473l0.096 0.193c2.429 4.76 4.768 9.566 7.015 14.414v0.032c0.257 0.513 0.481 1.089 0.737 1.603 0.16 0.384 0.32 0.704 0.416 1.024 0.256 0.832 0.352 1.633 0.223 2.466z"></path>
</symbol>
<symbol id="hero-group5" viewBox="0 0 189 32">
<path d="M74.050 3.502c0-1.58 1.282-2.87 2.87-2.87 1.58 0 2.87 1.282 2.87 2.87-0.055 1.58-1.389 2.814-2.973 2.759-1.503-0.055-2.707-1.26-2.766-2.759z"></path>
<path d="M119.274 22.619c0-1.591 1.282-2.877 2.859-2.877 1.587 0 2.873 1.286 2.873 2.877 0 1.588-1.286 2.873-2.873 2.873-1.577 0-2.859-1.289-2.859-2.873z"></path>
<path d="M27.021 21.378c-2.464 0-4.185-1.96-4.185-4.763 0-2.8 1.717-4.759 4.185-4.759 2.479 0 4.218 1.96 4.218 4.759-0.004 2.848-1.698 4.763-4.218 4.763zM27.021 7.671c-5.22 0-9.010 3.761-9.010 8.944s3.794 8.944 9.010 8.944c5.246 0 9.047-3.761 9.047-8.94 0-5.187-3.809-8.948-9.047-8.948zM68.502 17.064c-0.18-0.35-0.413-0.678-0.681-0.965l-0.158-0.166 0.166-0.158c0.239-0.254 0.486-0.553 0.718-0.899l4.608-6.852h-5.595l-3.463 5.36c-0.195 0.291-0.589 0.427-1.182 0.427h-0.792v-10.134c0-2.026-1.26-2.299-2.627-2.299h-2.335l0.004 23.914h4.955v-7.168h0.464c0.564 0 0.947 0.066 1.127 0.372l2.733 5.161c0.766 1.4 1.525 1.639 2.954 1.639h3.809l-2.833-4.674-1.871-3.558zM92.571 7.634c-2.523 0-4.133 1.12-5.032 2.070l-0.298 0.306-0.107-0.413c-0.265-1.017-1.157-1.569-2.501-1.569h-2.221l0.015 17.269h4.925v-7.957c0-0.781 0.1-1.451 0.306-2.070 0.549-1.864 2.078-3.028 3.986-3.028 1.536 0 2.14 0.81 2.14 2.91v7.522c0 1.787 0.825 2.626 2.619 2.626h2.339l-0.011-10.985c0-4.38-2.133-6.682-6.159-6.682zM76.982 8.024h-2.335l0.015 13.353v3.916h2.49l0.088 0.004 1.164-0.004h1.153v-0.004h0.011l0.011-14.639c-0.007-1.768-0.851-2.626-2.597-2.626zM46.356 21.378c-2.464 0-4.185-1.96-4.185-4.763 0-2.8 1.72-4.759 4.185-4.759 2.475 0 4.218 1.96 4.218 4.759-0.004 2.848-1.698 4.763-4.218 4.763zM46.356 7.671c-5.224 0-9.018 3.761-9.018 8.944s3.794 8.944 9.018 8.944c5.234 0 9.047-3.761 9.047-8.94 0-5.187-3.809-8.948-9.047-8.948z"></path>
<path d="M151.885 21.375c-2.464 0-4.184-1.96-4.184-4.763 0-2.8 1.72-4.759 4.184-4.759 2.48 0 4.218 1.96 4.218 4.759 0 2.848-1.698 4.763-4.218 4.763zM151.885 7.668c-5.223 0-9.017 3.761-9.017 8.944s3.787 8.944 9.017 8.944c5.239 0 9.047-3.761 9.047-8.94 0-5.187-3.812-8.948-9.047-8.948z"></path>
<path d="M109.107 20.612c-2.693 0-3.647-2.346-3.647-4.546 0-0.973 0.247-4.129 3.397-4.129 1.561 0 3.643 0.449 3.643 4.288-0.004 3.628-1.849 4.387-3.393 4.387zM115.053 7.981c-0.936 0-1.654 0.372-2.015 1.054l-0.133 0.265-0.228-0.203c-0.796-0.689-2.222-1.503-4.531-1.503-4.605 0-7.703 3.455-7.703 8.605 0 5.142 3.209 8.734 7.798 8.734 1.566 0 2.807-0.368 3.787-1.113l0.376-0.284v0.479c0 2.31-1.492 3.581-4.196 3.581-1.318 0-2.512-0.32-3.311-0.611-1.043-0.317-1.658-0.052-2.078 0.991l-0.394 0.965-0.553 1.411 0.343 0.18c1.731 0.921 3.986 1.466 6.019 1.466 4.192 0 9.088-2.144 9.088-8.185l0.014-15.843h-2.283z"></path>
<path d="M8.687 21.175l-4.012-0.004v-4.789c0-1.028 0.398-1.555 1.271-1.68h2.733c1.949 0 3.209 1.23 3.216 3.22 0 2.044-1.23 3.253-3.208 3.253zM4.675 8.253v-1.26c0-1.105 0.464-1.628 1.492-1.694h2.052c1.757 0 2.811 1.054 2.811 2.814 0 1.345-0.722 2.91-2.748 2.91h-3.606v-2.77zM13.8 13.034l-0.722-0.409 0.63-0.541c0.74-0.63 1.967-2.056 1.967-4.513 0-3.761-2.914-6.185-7.426-6.185h-5.732c-1.337 0.048-2.409 1.142-2.424 2.479v21.336h8.262c5.017 0 8.251-2.73 8.251-6.958 0-2.269-1.050-4.218-2.807-5.209z"></path>
<path d="M182.924 7.687c-2.055 0.004-4.004 0.95-5.286 2.564l-0.357 0.449-0.28-0.505c-0.914-1.665-2.479-2.505-4.667-2.505-2.288 0-3.824 1.275-4.539 2.037l-0.464 0.505-0.18-0.667c-0.258-0.958-1.113-1.485-2.402-1.485h-2.070l-0.022 17.203h4.7v-7.596c0-0.667 0.081-1.322 0.247-2.011 0.449-1.834 1.683-3.809 3.757-3.614 1.275 0.125 1.901 1.112 1.901 3.017v10.2h4.733v-7.596c0-0.832 0.078-1.459 0.266-2.078 0.375-1.754 1.668-3.551 3.669-3.551 1.447 0 1.985 0.818 1.985 3.024v7.684c0 1.735 0.774 2.516 2.512 2.516h2.211l0.003-10.981c0.015-4.391-1.919-6.612-5.717-6.612zM140.146 19.309c-0.015 0.015-2.037 2.151-4.701 2.151-2.427 0-4.877-1.488-4.877-4.811 0-2.87 1.901-4.877 4.623-4.877 0.884 0 1.886 0.317 2.045 0.847l0.022 0.088c0.206 0.755 0.895 1.275 1.672 1.271l2.575 0.004v-2.254c0-2.973-3.776-4.045-6.321-4.045-5.437 0-9.379 3.783-9.379 8.995 0 5.209 3.901 8.992 9.279 8.992 4.668 0 7.202-3.069 7.228-3.094l0.132-0.166-2.040-3.385-0.258 0.284z"></path>
</symbol>
<symbol id="hero-icon-location" viewBox="0 0 32 32">
<path fill="#facd49" style="fill: var(--color3, #facd49)" d="M4.667 13.757c0-6.133 5.125-11.090 11.325-11.090 6.217 0 11.342 4.957 11.342 11.090 0 3.091-1.124 5.96-2.974 8.392-2.041 2.683-4.556 5.020-7.388 6.854-0.648 0.424-1.233 0.456-1.944 0-2.848-1.835-5.363-4.172-7.387-6.854-1.851-2.432-2.974-5.301-2.974-8.392zM12.259 14.102c0 2.055 1.677 3.671 3.732 3.671 2.057 0 3.75-1.616 3.75-3.671 0-2.039-1.693-3.733-3.75-3.733-2.056 0-3.732 1.695-3.732 3.733z"></path>
</symbol>
<symbol id="hero-icon-message" viewBox="0 0 32 32">
<path fill="#fff" style="fill: var(--color1, #fff)" d="M30.378 1.65c-0.762-0.782-1.89-1.074-2.942-0.767l-24.528 7.133c-1.11 0.308-1.896 1.193-2.108 2.318-0.216 1.144 0.54 2.597 1.528 3.204l7.669 4.714c0.787 0.483 1.802 0.362 2.453-0.295l8.782-8.837c0.442-0.46 1.174-0.46 1.616 0 0.442 0.445 0.442 1.166 0 1.626l-8.798 8.839c-0.652 0.655-0.774 1.675-0.294 2.466l4.686 7.746c0.549 0.92 1.494 1.442 2.53 1.442 0.122 0 0.259 0 0.381-0.015 1.189-0.153 2.134-0.966 2.485-2.117l7.272-24.497c0.32-1.043 0.030-2.178-0.732-2.96z"></path>
</symbol>
<symbol id="hero-icon-user" viewBox="0 0 32 32">
<path fill="#fff" style="fill: var(--color1, #fff)" d="M12.667 16.737c3.673 0 6.617-2.982 6.617-6.703s-2.944-6.702-6.617-6.702c-3.673 0-6.617 2.982-6.617 6.702s2.944 6.703 6.617 6.703zM12.667 20.019c-5.394 0-10 0.863-10 4.308 0 3.445 4.578 4.338 10 4.338 5.393 0 10-0.863 10-4.308s-4.578-4.338-10-4.338zM26.53 12.783h1.604c0.66 0 1.199 0.546 1.199 1.216s-0.538 1.216-1.199 1.216h-1.604v1.57c0 0.67-0.537 1.215-1.198 1.215-0.66 0-1.199-0.546-1.199-1.215v-1.57h-1.601c-0.662 0-1.199-0.546-1.199-1.216s0.537-1.216 1.199-1.216h1.601v-1.568c0-0.67 0.538-1.216 1.199-1.216 0.662 0 1.198 0.546 1.198 1.216v1.568z"></path>
</symbol>
<symbol id="icon-hero-play" viewBox="0 0 34 32">
<path fill="#5d50c6" style="fill: var(--color5, #5d50c6)" d="M17.55 0c-8.832 0-16 7.168-16 16s7.168 16 16 16c8.832 0 16-7.168 16-16s-7.152-16-16-16zM22.35 19.568l-4.64 2.672c-0.576 0.336-1.216 0.496-1.84 0.496-0.64 0-1.264-0.16-1.84-0.496-1.152-0.672-1.84-1.856-1.84-3.2v-5.36c0-1.328 0.688-2.528 1.84-3.2s2.528-0.672 3.696 0l4.64 2.672c1.152 0.672 1.84 1.856 1.84 3.2s-0.688 2.544-1.856 3.216z"></path>
</symbol>
<symbol id="icon-hero-work" viewBox="0 0 32 32">
<path fill="#f85e9f" style="fill: var(--color1, #f85e9f)" d="M14.273 4.692c-0.894 0-1.654 0.621-1.868 1.458h7.177c-0.213-0.837-0.974-1.458-1.868-1.458h-3.442zM21.609 6.15h2.641c2.801 0 5.083 2.309 5.083 5.144 0 0-0.080 1.2-0.107 2.872-0.003 0.132-0.067 0.262-0.172 0.34-0.642 0.474-1.229 0.865-1.282 0.892-2.214 1.485-4.788 2.53-7.529 3.050-0.179 0.035-0.355-0.058-0.446-0.217-0.768-1.331-2.204-2.198-3.805-2.198-1.59 0-3.039 0.857-3.83 2.19-0.092 0.157-0.265 0.247-0.443 0.213-2.719-0.521-5.292-1.565-7.493-3.025l-1.281-0.891c-0.107-0.067-0.173-0.189-0.173-0.324-0.040-0.689-0.107-2.903-0.107-2.903 0-2.835 2.281-5.144 5.083-5.144h2.628c0.253-1.958 1.894-3.484 3.895-3.484h3.442c2.001 0 3.642 1.526 3.895 3.484zM28.88 17.087l-0.053 0.027c-2.695 1.809-5.936 3.011-9.338 3.511-0.48 0.067-0.961-0.243-1.094-0.729-0.293-1.107-1.241-1.836-2.375-1.836h-0.040c-1.134 0-2.081 0.729-2.375 1.836-0.133 0.486-0.614 0.797-1.094 0.729-3.402-0.5-6.643-1.701-9.338-3.511-0.013-0.013-0.147-0.095-0.253-0.027-0.12 0.068-0.12 0.23-0.12 0.23l0.093 6.886c0 2.835 2.268 5.131 5.069 5.131h16.061c2.801 0 5.069-2.295 5.069-5.131l0.107-6.886c0 0 0-0.162-0.12-0.23-0.067-0.040-0.147-0.027-0.2 0zM16.994 22.744c0 0.567-0.44 1.013-1.001 1.013-0.547 0-1.001-0.445-1.001-1.013v-1.742c0-0.554 0.454-1.013 1.001-1.013 0.56 0 1.001 0.459 1.001 1.013v1.742z"></path>
</symbol>
<symbol id="icon-hero-ten-arrows" viewBox="0 0 12 32">
<path fill="#ff5722" style="fill: var(--color1, #ff5722)" d="M8.287 31.99h3.948l-1.974-1.974-1.974 1.974z"></path>
<path fill="#ff5722" style="fill: var(--color1, #ff5722)" d="M8.287 25.301h3.948l-1.974-1.974-1.974 1.974z"></path>
<path fill="#ff5722" style="fill: var(--color1, #ff5722)" d="M8.287 18.608h3.948l-1.974-1.974-1.974 1.974z"></path>
<path fill="#ff5722" style="fill: var(--color1, #ff5722)" d="M8.287 11.918h3.948l-1.974-1.974-1.974 1.974z"></path>
<path fill="#ff5722" style="fill: var(--color1, #ff5722)" d="M8.287 5.229l3.948-0-1.974-1.977-1.974 1.977z"></path>
<path fill="#ff5722" style="fill: var(--color1, #ff5722)" d="M0 28.738h3.948l-1.974-1.974-1.974 1.974z"></path>
<path fill="#ff5722" style="fill: var(--color1, #ff5722)" d="M0 22.046h3.948l-1.974-1.974-1.974 1.974z"></path>
<path fill="#ff5722" style="fill: var(--color1, #ff5722)" d="M0 15.356h3.948l-1.974-1.974-1.974 1.974z"></path>
<path fill="#ff5722" style="fill: var(--color1, #ff5722)" d="M0 8.666h3.948l-1.974-1.974-1.974 1.974z"></path>
<path fill="#ff5722" style="fill: var(--color1, #ff5722)" d="M0 1.974h3.948l-1.974-1.974-1.974 1.974z"></path>
</symbol>
<symbol id="icon-menu-mobil2" viewBox="0 0 31 32">
<path fill="#5d50c6" style="fill: var(--color1, #5d50c6)" d="M21.146 2.939h-10.945c-4.754 0-7.589 2.834-7.589 7.589v10.932c0 4.767 2.834 7.602 7.589 7.602h10.932c4.754 0 7.589-2.834 7.589-7.589v-10.945c0.013-4.754-2.821-7.589-7.575-7.589zM22.204 22.857h-13.061c-0.536 0-0.98-0.444-0.98-0.98s0.444-0.98 0.98-0.98h13.061c0.535 0 0.98 0.444 0.98 0.98s-0.444 0.98-0.98 0.98zM22.204 16.98h-13.061c-0.536 0-0.98-0.444-0.98-0.98s0.444-0.98 0.98-0.98h13.061c0.535 0 0.98 0.444 0.98 0.98s-0.444 0.98-0.98 0.98zM22.204 11.102h-13.061c-0.536 0-0.98-0.444-0.98-0.98s0.444-0.98 0.98-0.98h13.061c0.535 0 0.98 0.444 0.98 0.98s-0.444 0.98-0.98 0.98z"></path>
</symbol>
</defs>
</svg>
