<svg aria-hidden="true" style="position: absolute; width: 0; height: 0; overflow: hidden;" version="1.1" xmlns="http://www.w3.org/2000/svg" xmlns:xlink="http://www.w3.org/1999/xlink">
<defs>
<symbol id="icon-menu-svgrepo-com" viewBox="0 0 32 32">
<path d="M22.704 0h-13.408c-5.824 0-9.296 3.472-9.296 9.296v13.392c0 5.84 3.472 9.312 9.296 9.312h13.392c5.824 0 9.296-3.472 9.296-9.296v-13.408c0.016-5.824-3.456-9.296-9.28-9.296zM24 24.4h-16c-0.656 0-1.2-0.544-1.2-1.2s0.544-1.2 1.2-1.2h16c0.656 0 1.2 0.544 1.2 1.2s-0.544 1.2-1.2 1.2zM24 17.2h-16c-0.656 0-1.2-0.544-1.2-1.2s0.544-1.2 1.2-1.2h16c0.656 0 1.2 0.544 1.2 1.2s-0.544 1.2-1.2 1.2zM24 10h-16c-0.656 0-1.2-0.544-1.2-1.2s0.544-1.2 1.2-1.2h16c0.656 0 1.2 0.544 1.2 1.2s-0.544 1.2-1.2 1.2z"></path>
</symbol>
<symbol id="icon-mobile-menu" viewBox="0 0 32 32">
<path d="M3.2 6.4h25.6c1.767 0 3.2-1.433 3.2-3.2s-1.433-3.2-3.2-3.2h-25.6c-1.767 0-3.2 1.433-3.2 3.2s1.433 3.2 3.2 3.2z"></path>
<path d="M28.8 12.8h-25.6c-1.767 0-3.2 1.433-3.2 3.2s1.433 3.2 3.2 3.2h25.6c1.767 0 3.2-1.433 3.2-3.2s-1.433-3.2-3.2-3.2z"></path>
<path d="M28.8 25.6h-25.6c-1.767 0-3.2 1.433-3.2 3.2s1.433 3.2 3.2 3.2h25.6c1.767 0 3.2-1.433 3.2-3.2s-1.433-3.2-3.2-3.2z"></path>
</symbol>
</defs>
</svg>
