<svg width="192" height="185" viewBox="0 0 192 185" fill="none" xmlns="http://www.w3.org/2000/svg">
<g clip-path="url(#clip0_1156_1078)" filter="url(#filter0_d_1156_1078)">
<path d="M8.83998 128.32C7.39998 128.32 6.22998 129.5 6.22998 130.95C6.22998 132.4 7.39998 133.58 8.83998 133.58C10.28 133.58 11.45 132.4 11.45 130.95C11.45 129.5 10.28 128.32 8.83998 128.32Z" fill="#FF5722"/>
<path d="M53.5 133.58C54.9415 133.58 56.11 132.403 56.11 130.95C56.11 129.498 54.9415 128.32 53.5 128.32C52.0586 128.32 50.89 129.498 50.89 130.95C50.89 132.403 52.0586 133.58 53.5 133.58Z" fill="#FF5722"/>
<path d="M31.1701 128.32C29.7301 128.32 28.5601 129.5 28.5601 130.95C28.5601 132.4 29.7301 133.58 31.1701 133.58C32.6101 133.58 33.7801 132.4 33.7801 130.95C33.7801 129.5 32.6101 128.32 31.1701 128.32Z" fill="#FF5722"/>
<path d="M30.7999 106.941C29.3599 106.941 28.1899 108.121 28.1899 109.571C28.1899 111.021 29.3599 112.201 30.7999 112.201C32.2399 112.201 33.4099 111.021 33.4099 109.571C33.4099 108.121 32.2399 106.941 30.7999 106.941Z" fill="#FF5722"/>
<path d="M8.46999 106.941C7.02998 106.941 5.85999 108.121 5.85999 109.571C5.85999 111.021 7.02998 112.201 8.46999 112.201C9.90999 112.201 11.08 111.021 11.08 109.571C11.08 108.121 9.90999 106.941 8.46999 106.941Z" fill="#FF5722"/>
<path d="M75.46 106.941C74.02 106.941 72.85 108.121 72.85 109.571C72.85 111.021 74.02 112.201 75.46 112.201C76.9 112.201 78.07 111.021 78.07 109.571C78.07 108.121 76.9 106.941 75.46 106.941Z" fill="#FF5722"/>
<path d="M53.13 106.941C51.69 106.941 50.52 108.121 50.52 109.571C50.52 111.021 51.69 112.201 53.13 112.201C54.57 112.201 55.74 111.021 55.74 109.571C55.74 108.121 54.57 106.941 53.13 106.941Z" fill="#FF5722"/>
<path d="M8.83998 171.102C7.39998 171.102 6.22998 172.282 6.22998 173.732C6.22998 175.182 7.39998 176.362 8.83998 176.362C10.28 176.362 11.45 175.182 11.45 173.732C11.45 172.282 10.28 171.102 8.83998 171.102Z" fill="#FF5722"/>
<path d="M30.7999 149.711C29.3599 149.711 28.1899 150.891 28.1899 152.341C28.1899 153.791 29.3599 154.971 30.7999 154.971C32.2399 154.971 33.4099 153.791 33.4099 152.341C33.4099 150.891 32.2399 149.711 30.7999 149.711Z" fill="#FF5722"/>
<path d="M8.46999 149.711C7.02998 149.711 5.85999 150.891 5.85999 152.341C5.85999 153.791 7.02998 154.971 8.46999 154.971C9.90999 154.971 11.08 153.791 11.08 152.341C11.08 150.891 9.90999 149.711 8.46999 149.711Z" fill="#FF5722"/>
<path d="M97.4201 85.5508C95.9801 85.5508 94.8101 86.7308 94.8101 88.1808C94.8101 89.6308 95.9801 90.8108 97.4201 90.8108C98.8601 90.8108 100.03 89.6308 100.03 88.1808C100.03 86.7308 98.8601 85.5508 97.4201 85.5508Z" fill="#FF5722"/>
<path d="M52.76 85.5508C51.32 85.5508 50.15 86.7308 50.15 88.1808C50.15 89.6308 51.32 90.8108 52.76 90.8108C54.2 90.8108 55.37 89.6308 55.37 88.1808C55.37 86.7308 54.2 85.5508 52.76 85.5508Z" fill="#FF5722"/>
<path d="M75.09 90.8108C76.5314 90.8108 77.7 89.6333 77.7 88.1808C77.7 86.7283 76.5314 85.5508 75.09 85.5508C73.6485 85.5508 72.48 86.7283 72.48 88.1808C72.48 89.6333 73.6485 90.8108 75.09 90.8108Z" fill="#FF5722"/>
<path d="M30.4201 85.5508C28.9801 85.5508 27.8101 86.7308 27.8101 88.1808C27.8101 89.6308 28.9801 90.8108 30.4201 90.8108C31.8601 90.8108 33.0301 89.6308 33.0301 88.1808C33.0301 86.7308 31.8701 85.5508 30.4201 85.5508Z" fill="#FF5722"/>
<path d="M8.08998 85.5508C6.64998 85.5508 5.47998 86.7308 5.47998 88.1808C5.47998 89.6308 6.64998 90.8108 8.08998 90.8108C9.52998 90.8108 10.7 89.6308 10.7 88.1808C10.7 86.7308 9.52998 85.5508 8.08998 85.5508Z" fill="#FF5722"/>
<path d="M97.0401 64.1602C95.6001 64.1602 94.4301 65.3402 94.4301 66.7902C94.4301 68.2402 95.6001 69.4202 97.0401 69.4202C98.4801 69.4202 99.6501 68.2402 99.6501 66.7902C99.6501 65.3402 98.4801 64.1602 97.0401 64.1602Z" fill="#FF5722"/>
<path d="M74.71 64.1602C73.27 64.1602 72.1 65.3402 72.1 66.7902C72.1 68.2402 73.27 69.4202 74.71 69.4202C76.15 69.4202 77.32 68.2402 77.32 66.7902C77.32 65.3402 76.15 64.1602 74.71 64.1602Z" fill="#FF5722"/>
<path d="M52.38 64.1602C50.94 64.1602 49.77 65.3402 49.77 66.7902C49.77 68.2402 50.94 69.4202 52.38 69.4202C53.82 69.4202 54.99 68.2402 54.99 66.7902C54.99 65.3402 53.82 64.1602 52.38 64.1602Z" fill="#FF5722"/>
<path d="M119.38 64.1602C117.94 64.1602 116.77 65.3402 116.77 66.7902C116.77 68.2402 117.94 69.4202 119.38 69.4202C120.82 69.4202 121.99 68.2402 121.99 66.7902C121.99 65.3402 120.82 64.1602 119.38 64.1602Z" fill="#FF5722"/>
<path d="M7.71999 64.1602C6.27999 64.1602 5.10999 65.3402 5.10999 66.7902C5.10999 68.2402 6.27999 69.4202 7.71999 69.4202C9.15999 69.4202 10.33 68.2402 10.33 66.7902C10.33 65.3402 9.15999 64.1602 7.71999 64.1602Z" fill="#FF5722"/>
<path d="M30.0499 64.1602C28.6099 64.1602 27.4399 65.3402 27.4399 66.7902C27.4399 68.2402 28.6099 69.4202 30.0499 69.4202C31.4899 69.4202 32.6599 68.2402 32.6599 66.7902C32.6599 65.3402 31.4899 64.1602 30.0499 64.1602Z" fill="#FF5722"/>
<path d="M7.34999 42.7695C5.90999 42.7695 4.73999 43.9495 4.73999 45.3995C4.73999 46.8495 5.90999 48.0295 7.34999 48.0295C8.78999 48.0295 9.95999 46.8495 9.95999 45.3995C9.95999 43.9495 8.78999 42.7695 7.34999 42.7695Z" fill="#FF5722"/>
<path d="M96.6701 48.0295C98.1115 48.0295 99.2801 46.852 99.2801 45.3995C99.2801 43.947 98.1115 42.7695 96.6701 42.7695C95.2286 42.7695 94.0601 43.947 94.0601 45.3995C94.0601 46.852 95.2286 48.0295 96.6701 48.0295Z" fill="#FF5722"/>
<path d="M141.33 48.0295C142.771 48.0295 143.94 46.852 143.94 45.3995C143.94 43.947 142.771 42.7695 141.33 42.7695C139.889 42.7695 138.72 43.947 138.72 45.3995C138.72 46.852 139.889 48.0295 141.33 48.0295Z" fill="#FF5722"/>
<path d="M74.34 42.7695C72.9 42.7695 71.73 43.9495 71.73 45.3995C71.73 46.8495 72.9 48.0295 74.34 48.0295C75.78 48.0295 76.95 46.8495 76.95 45.3995C76.95 43.9495 75.78 42.7695 74.34 42.7695Z" fill="#FF5722"/>
<path d="M52.01 42.7695C50.57 42.7695 49.4 43.9495 49.4 45.3995C49.4 46.8495 50.57 48.0295 52.01 48.0295C53.45 48.0295 54.62 46.8495 54.62 45.3995C54.62 43.9495 53.45 42.7695 52.01 42.7695Z" fill="#FF5722"/>
<path d="M29.6799 42.7695C28.2399 42.7695 27.0699 43.9495 27.0699 45.3995C27.0699 46.8495 28.2399 48.0295 29.6799 48.0295C31.1199 48.0295 32.2899 46.8495 32.2899 45.3995C32.2899 43.9495 31.1199 42.7695 29.6799 42.7695Z" fill="#FF5722"/>
<path d="M119 42.7695C117.56 42.7695 116.39 43.9495 116.39 45.3995C116.39 46.8495 117.56 48.0295 119 48.0295C120.44 48.0295 121.61 46.8495 121.61 45.3995C121.61 43.9495 120.44 42.7695 119 42.7695Z" fill="#FF5722"/>
<path d="M6.98 26.6389C8.42146 26.6389 9.59 25.4614 9.59 24.0089C9.59 22.5564 8.42146 21.3789 6.98 21.3789C5.53853 21.3789 4.37 22.5564 4.37 24.0089C4.37 25.4614 5.53853 26.6389 6.98 26.6389Z" fill="#FF5722"/>
<path d="M118.63 21.3906C117.19 21.3906 116.02 22.5706 116.02 24.0206C116.02 25.4706 117.19 26.6506 118.63 26.6506C120.07 26.6506 121.24 25.4706 121.24 24.0206C121.24 22.5706 120.07 21.3906 118.63 21.3906Z" fill="#FF5722"/>
<path d="M29.3099 21.3906C27.8699 21.3906 26.7 22.5706 26.7 24.0206C26.7 25.4706 27.8699 26.6506 29.3099 26.6506C30.7499 26.6506 31.92 25.4706 31.92 24.0206C31.92 22.5706 30.7499 21.3906 29.3099 21.3906Z" fill="#FF5722"/>
<path d="M73.97 21.3906C72.53 21.3906 71.36 22.5706 71.36 24.0206C71.36 25.4706 72.53 26.6506 73.97 26.6506C75.41 26.6506 76.58 25.4706 76.58 24.0206C76.58 22.5706 75.41 21.3906 73.97 21.3906Z" fill="#FF5722"/>
<path d="M51.64 21.3906C50.2 21.3906 49.03 22.5706 49.03 24.0206C49.03 25.4706 50.2 26.6506 51.64 26.6506C53.08 26.6506 54.25 25.4706 54.25 24.0206C54.25 22.5706 53.08 21.3906 51.64 21.3906Z" fill="#FF5722"/>
<path d="M96.2999 21.3906C94.8599 21.3906 93.6899 22.5706 93.6899 24.0206C93.6899 25.4706 94.8599 26.6506 96.2999 26.6506C97.7399 26.6506 98.9099 25.4706 98.9099 24.0206C98.9099 22.5706 97.7399 21.3906 96.2999 21.3906Z" fill="#FF5722"/>
<path d="M163.29 21.3906C161.85 21.3906 160.68 22.5706 160.68 24.0206C160.68 25.4706 161.85 26.6506 163.29 26.6506C164.73 26.6506 165.9 25.4706 165.9 24.0206C165.9 22.5706 164.74 21.3906 163.29 21.3906Z" fill="#FF5722"/>
<path d="M140.96 21.3906C139.52 21.3906 138.35 22.5706 138.35 24.0206C138.35 25.4706 139.52 26.6506 140.96 26.6506C142.4 26.6506 143.57 25.4706 143.57 24.0206C143.57 22.5706 142.41 21.3906 140.96 21.3906Z" fill="#FF5722"/>
<path d="M28.94 5.24828C30.38 5.24828 31.55 4.06828 31.55 2.61828C31.55 1.16828 30.38 -0.0117188 28.94 -0.0117188C27.5 -0.0117188 26.33 1.16828 26.33 2.61828C26.33 4.06828 27.5 5.24828 28.94 5.24828Z" fill="#FF5722"/>
<path d="M6.61 5.25C8.05 5.25 9.22 4.07 9.22 2.62C9.22 1.17 8.04 0 6.61 0C5.18 0 4 1.18 4 2.63C4 4.08 5.17 5.26 6.61 5.26V5.25Z" fill="#FF5722"/>
<path d="M162.92 5.26C164.362 5.26 165.53 4.08251 165.53 2.63C165.53 1.17749 164.362 0 162.92 0C161.479 0 160.31 1.17749 160.31 2.63C160.31 4.08251 161.479 5.26 162.92 5.26Z" fill="#FF5722"/>
<path d="M95.9299 5.24828C97.3699 5.24828 98.5399 4.06828 98.5399 2.61828C98.5399 1.16828 97.3699 -0.0117188 95.9299 -0.0117188C94.4899 -0.0117188 93.3199 1.16828 93.3199 2.61828C93.3199 4.06828 94.4899 5.24828 95.9299 5.24828Z" fill="#FF5722"/>
<path d="M118.26 5.24828C119.7 5.24828 120.87 4.06828 120.87 2.61828C120.87 1.16828 119.7 -0.0117188 118.26 -0.0117188C116.82 -0.0117188 115.65 1.16828 115.65 2.61828C115.65 4.06828 116.82 5.24828 118.26 5.24828Z" fill="#FF5722"/>
<path d="M140.59 5.24828C142.03 5.24828 143.2 4.06828 143.2 2.61828C143.2 1.16828 142.03 -0.0117188 140.59 -0.0117188C139.15 -0.0117188 137.98 1.16828 137.98 2.61828C137.98 4.06828 139.15 5.24828 140.59 5.24828Z" fill="#FF5722"/>
<path d="M51.27 5.24828C52.71 5.24828 53.88 4.06828 53.88 2.61828C53.88 1.16828 52.71 -0.0117188 51.27 -0.0117188C49.83 -0.0117188 48.66 1.16828 48.66 2.61828C48.66 4.06828 49.83 5.24828 51.27 5.24828Z" fill="#FF5722"/>
<path d="M185.25 5.24828C186.69 5.24828 187.86 4.06828 187.86 2.61828C187.86 1.16828 186.7 -0.0117188 185.25 -0.0117188C183.8 -0.0117188 182.64 1.16828 182.64 2.61828C182.64 4.06828 183.81 5.24828 185.25 5.24828Z" fill="#FF5722"/>
<path d="M73.6 5.24828C75.04 5.24828 76.21 4.06828 76.21 2.61828C76.21 1.16828 75.04 -0.0117188 73.6 -0.0117188C72.16 -0.0117188 70.99 1.16828 70.99 2.61828C70.99 4.06828 72.16 5.24828 73.6 5.24828Z" fill="#FF5722"/>
</g>
<defs>
<filter id="filter0_d_1156_1078" x="0" y="0" width="191.86" height="184.352" filterUnits="userSpaceOnUse" color-interpolation-filters="sRGB">
<feFlood flood-opacity="0" result="BackgroundImageFix"/>
<feColorMatrix in="SourceAlpha" type="matrix" values="0 0 0 0 0 0 0 0 0 0 0 0 0 0 0 0 0 0 127 0" result="hardAlpha"/>
<feOffset dy="4"/>
<feGaussianBlur stdDeviation="2"/>
<feComposite in2="hardAlpha" operator="out"/>
<feColorMatrix type="matrix" values="0 0 0 0 0 0 0 0 0 0 0 0 0 0 0 0 0 0 0.25 0"/>
<feBlend mode="normal" in2="BackgroundImageFix" result="effect1_dropShadow_1156_1078"/>
<feBlend mode="normal" in="SourceGraphic" in2="effect1_dropShadow_1156_1078" result="shape"/>
</filter>
<clipPath id="clip0_1156_1078">
<rect width="183.86" height="176.35" fill="white" transform="translate(4)"/>
</clipPath>
</defs>
</svg>
